<svg xmlns="http://www.w3.org/2000/svg" xmlns:xlink="http://www.w3.org/1999/xlink" width="16" height="16" viewBox="0 0 16 16">
    <defs>
        <path id="a" d="M13.784 13.933H0V.149h13.784z"/>
        <path id="c" d="M8.652.171h-8.6v8.566h8.6V.171z"/>
    </defs>
    <g fill="none" fill-rule="evenodd">
        <g transform="translate(0 1.737)">
            <path fill="#AF4591" d="M6.974 1.68H1.532V12.4h10.72V7.02a.766.766 0 0 1 1.532 0v6.147a.766.766 0 0 1-.766.766H.766A.766.766 0 0 1 0 13.167V.915C0 .492.343.149.766.149h6.208a.766.766 0 0 1 0 1.532" mask="url(#b)"/>
        </g>
        <g transform="translate(6.871 .02)">
            <path fill="#AF4591" d="M8.04 5.842a.707.707 0 0 1-1.2.397l-.925-.925a.355.355 0 0 0-.501 0L2.197 8.529a.704.704 0 0 1-1 0L.26 7.592a.704.704 0 0 1 0-1l3.215-3.217a.355.355 0 0 0 0-.5l-.89-.892a.707.707 0 0 1 .396-1.2L7.764.172c.492 0 .888.397.888.889L8.04 5.842z" mask="url(#d)"/>
        </g>
    </g>
</svg>
