<svg xmlns="http://www.w3.org/2000/svg" width="19" height="19" viewBox="0 0 19 19">
    <path fill="#AF4692" fill-rule="evenodd" d="M13.745 9.5a4.244 4.244 0 1 1-8.489.001 4.244 4.244 0 0 1 8.489-.001zM2.692 11.432c.154.546.372 1.064.647 1.545l-1.213 1.326a.888.888 0 0 0 0 1.257l1.314 1.314a.888.888 0 0 0 1.257 0l1.326-1.213c.481.275.999.493 1.545.647l.113 1.803c0 .493.396.889.89.889h1.859c.493 0 .89-.396.89-.89l.112-1.802a6.848 6.848 0 0 0 1.545-.647l1.326 1.213a.888.888 0 0 0 1.257 0l1.314-1.314a.888.888 0 0 0 0-1.257l-1.213-1.326c.275-.481.493-.999.647-1.545l1.803-.113c.493 0 .889-.396.889-.89V8.57a.887.887 0 0 0-.89-.89l-1.802-.112a6.853 6.853 0 0 0-.647-1.545l1.213-1.326a.888.888 0 0 0 0-1.257L15.56 2.126a.888.888 0 0 0-1.257 0L12.977 3.34a6.848 6.848 0 0 0-1.545-.647L11.319.89A.887.887 0 0 0 10.43 0H8.57a.887.887 0 0 0-.89.89l-.112 1.802a6.853 6.853 0 0 0-1.545.647L4.697 2.126a.888.888 0 0 0-1.257 0L2.126 3.44a.888.888 0 0 0 0 1.257L3.34 6.023a6.853 6.853 0 0 0-.647 1.545L.89 7.68A.887.887 0 0 0 0 8.57v1.859c0 .493.396.89.89.89l1.802.112zM6.872 9.5a2.628 2.628 0 1 0 5.256 0 2.628 2.628 0 0 0-5.256 0zM9.5 8.49a1.011 1.011 0 1 1 0 2.021 1.011 1.011 0 0 1 0-2.022z"/>
</svg>
