<svg xmlns="http://www.w3.org/2000/svg" xmlns:xlink="http://www.w3.org/1999/xlink" width="19" height="13" viewBox="0 0 19 13">
    <defs>
        <path id="a" d="M0 0h18.873v12.332H0z"/>
    </defs>
    <g fill="none" fill-rule="evenodd">
        <path fill="#AF4591" d="M9.435 10.02c-2.171 0-3.933-1.727-3.933-3.854s1.762-3.854 3.933-3.854c2.17 0 3.932 1.727 3.932 3.854s-1.762 3.854-3.932 3.854m8.911-5.168C16.883 3.03 13.32 0 9.438 0 5.553 0 1.986 3.029.523 4.852.193 5.268.012 5.72 0 6.166c.012.447.193.898.523 1.314 1.463 1.823 5.026 4.852 8.912 4.852 3.885 0 7.448-3.029 8.911-4.852.334-.416.515-.867.527-1.314-.012-.447-.193-.898-.527-1.314M7.075 6.166c0 1.276 1.058 2.312 2.36 2.312 1.301 0 2.36-1.036 2.36-2.312v-.02c-.253.251-.598.405-.984.405-.76 0-1.376-.605-1.376-1.348 0-.536.322-1.002.782-1.218a2.38 2.38 0 0 0-.782-.131c-1.302 0-2.36 1.036-2.36 2.312" mask="url(#b)"/>
    </g>
</svg>
