<svg xmlns="http://www.w3.org/2000/svg" xmlns:xlink="http://www.w3.org/1999/xlink" width="18" height="17" viewBox="0 0 18 17">
    <defs>
        <path id="a" d="M0 17h18V0H0z"/>
    </defs>
    <g fill="none" fill-rule="evenodd">
        <path fill="#AF4692" d="M2.7 3.477H6v.696c0 .471.368.85.825.85h4.35a.836.836 0 0 0 .825-.85v-.696h3.3c.457 0 .825.379.825.85v9.891c0 .472-.368.85-.825.85H2.7a.835.835 0 0 1-.825-.85v-9.89c0-.472.368-.85.825-.85zM0 15.455C0 16.308.671 17 1.5 17h15c.829 0 1.5-.692 1.5-1.545V3.09c0-.854-.671-1.545-1.5-1.545H12V.85a.836.836 0 0 0-.825-.85h-4.35A.835.835 0 0 0 6 .85v.696H1.5c-.829 0-1.5.691-1.5 1.545v12.364zm13.313-4.637h-1.875c-.518 0-.938.433-.938.966 0 .533.42.966.938.966h1.875c.517 0 .937-.433.937-.966 0-.533-.42-.966-.937-.966zm0-3.477h-1.875c-.518 0-.938.433-.938.966 0 .533.42.966.938.966h1.875c.517 0 .937-.433.937-.966 0-.533-.42-.966-.937-.966zm-4.5 4.238c-.42-.548-.788-.819-1.7-.911a.353.353 0 0 1-.284-.352c0-.128.405-.51.4-.514.421-.436.646-1.144.646-1.688 0-.846-.728-1.546-1.687-1.546-.98 0-1.688.7-1.688 1.546 0 .548.221 1.26.642 1.696 0 0 .404.378.404.506a.362.362 0 0 1-.314.36c-.894.092-1.253.362-1.67.903-.116.159-.183.471-.187.638v.726c0 .32.259.58.577.58h4.47a.579.579 0 0 0 .578-.58v-.726c-.004-.167-.068-.48-.187-.638z" mask="url(#b)"/>
    </g>
</svg>
