<svg xmlns="http://www.w3.org/2000/svg" width="89" height="153" viewBox="0 0 89 153">
    <g fill="none" fill-rule="evenodd">
      <rect width="19.321" height="3.41" x="76.909" y="32.649" fill="#D8D8D8" rx="1.705" transform="rotate(90 86.57 34.354)"/>
      <rect width="13.591" height="3.41" x="-4.739" y="32.057" fill="#D8D8D8" rx="1.705" transform="rotate(90 2.057 33.762)"/>
      <rect width="13.591" height="3.41" x="-4.739" y="46.83" fill="#D8D8D8" rx="1.705" transform="rotate(90 2.057 48.535)"/>
        <path fill="#B3B6B8" d="M10.45.03h68.12a8 8 0 0 1 8 8v136.114a8 8 0 0 1-8 8H10.45a8 8 0 0 1-8-8V8.03a8 8 0 0 1 8-8z"/>
        <path fill="#AADDDF" d="M7.617 14.592h74.41v119.354H7.617z"/>
        <path fill="#CA9650" d="M38.595 50.138h11.313v5.919l-5.656 2.892-5.657-2.892z"/>
        <path fill="#EDEDEE" d="M23.51 75.312s.744-14.554 2.977-17.226c1.488-1.782 5.478-2.815 11.967-3.098 2.357 1.619 4.289 2.467 5.798 2.547 1.508.079 3.29-.637 5.348-2.149 5.554-.308 9.375.592 11.462 2.7 2.088 2.107 3.398 7.85 3.931 17.226-17.978.024-31.806.024-41.483 0z"/>
        <path fill="#A6327C" d="M37.791 54.402l4.266 20.907h4.215l3.95-20.465c-1.836 1.198-3.806 1.798-5.908 1.798-2.103 0-4.277-.747-6.523-2.24z"/>
        <path fill="#D5D8D9" d="M38.426 53.554c-.736.574-1.166 1.063-1.29 1.468-.123.405-.508 2.935-1.156 7.59l2.662 1.62-2.662 2.69 5.5 8.39h1.336l-4.39-21.758zM49.916 54.088c.514.12.937.47 1.27 1.052.332.582.568 3.157.71 7.726l-1.98 1.181 1.98 2.69-5.471 8.627h-.901l4.392-21.276z"/>
        <path fill="#000000" d="M34.55 43.144l1.075 1.105 3.092 6.351v4.454l-7.604.802c1.445-1.88 2.34-3.51 2.687-4.889.346-1.379.596-3.987.75-7.823zM53.72 43.082l-1.076 1.105-3.092 6.351v4.759l7.544.606c-1.405-1.953-2.28-3.619-2.626-4.998-.347-1.379-.596-3.987-.75-7.823z"/>
        <path fill="#E6C894" d="M53.444 45.353c1.071 0 1.94-1.153 1.94-2.575 0-1.422 0-2.575-1.94-2.575s-1.94 1.153-1.94 2.575c0 1.422.868 2.575 1.94 2.575z"/>
        <path fill="#E6C894" d="M44.392 54.794c2.7 0 7.824-5.898 9.3-12.346 1.477-6.448 0-12.347-9.3-12.347-9.301 0-10.552 5.372-9.301 12.347 1.25 6.975 6.6 12.346 9.3 12.346z"/>
        <path fill="#E6C894" d="M34.842 45.353c1.071 0 1.94-1.153 1.94-2.575 0-1.422 0-2.575-1.94-2.575s-1.94 1.153-1.94 2.575c0 1.422.869 2.575 1.94 2.575z"/>
        <path fill="#000000" d="M34.019 40.358c0-2.151.218-3.963.653-5.435.654-2.209 2.484-7.427 9.962-7.427 7.477 0 9.264 5.298 9.562 7.046.297 1.75.297 5.816.297 5.816l-1.175.355c-1.775-.742-3.063-1.496-3.865-2.261-1.203-1.149-4.82-4.867-4.82-4.867s-3.137 3.587-4.756 4.867c-1.079.853-2.53 1.63-4.355 2.334l-1.503-.428z"/>
        <path fill="#9F367E" d="M34.467 34.128H54.33l.365 3.365H34.07z"/>
        <ellipse cx="44.402" cy="35.573" fill="#B3B6B8" rx="2.791" ry="2.805"/>
        <circle cx="46.589" cy="142.977" r="6.459" fill="#D1D3D4"/>
        <circle cx="33.311" cy="9.229" r="2.273" fill="#D8D8D8"/>
        <rect width="19.321" height="3.41" x="40.13" y="6.956" fill="#D8D8D8" rx="1.705"/>
        <path fill="#FBD7B4" d="M7.617 74.269h74.564v59.977H7.617z"/>
        <path fill="#773E1B" d="M38.396 108.997h11.512v5.672c-1.918 2.494-3.837 3.742-5.756 3.742s-3.837-1.248-5.756-3.742v-5.672z"/>
        <path fill="#28713D" d="M23.51 134.17s-.069-14.553 2.164-17.226c1.488-1.781 5.749-2.814 12.78-3.097 2.166 3.603 4.003 5.444 5.511 5.523 1.509.079 3.5-1.582 5.974-4.984 5.836-.402 9.797.45 11.885 2.558 2.088 2.108 3.144 7.85 3.17 17.226-17.98.024-31.807.024-41.484 0z"/>
        <path fill="#A56035" d="M53.444 104.212c1.071 0 1.94-1.153 1.94-2.575 0-1.422 0-2.575-1.94-2.575s-1.94 1.153-1.94 2.575c0 1.422.868 2.575 1.94 2.575z"/>
        <path fill="#9F6233" d="M44.392 113.653c5.517-.172 7.824-5.898 9.3-12.346.673-2.938.733-5.76-.28-7.964-1.212-2.634-3.956-4.383-9.02-4.383-9.301 0-10.552 5.372-9.301 12.347 1.25 6.974 3.783 12.518 9.3 12.346z"/>
        <path fill="#A56035" d="M34.842 104.212c1.071 0 1.94-1.153 1.94-2.575 0-1.422 0-2.575-1.94-2.575s-1.94 1.153-1.94 2.575c0 1.422.869 2.575 1.94 2.575z"/>
        <path fill="#2A1A0E" d="M34.019 99.216c0-2.15.218-3.962.653-5.435.654-2.208 2.484-7.426 9.962-7.426 7.477 0 9.264 5.297 9.562 7.046.297 1.749.297 5.815.297 5.815l-1.175.356-2.251-2.768c-1.012-1.245-2.04-2.675-2.04-2.675s-2.557 1.701-4.393 2.675c-1.225.65-4.262 1.596-9.112 2.84l-1.503-.428z"/>
        <path fill="#72A982" d="M38.442 113.78c-.617.048-.923.093-.916.135.86 5.4 3.446 8.346 6.893 8.36 3.447.015 6.883-5.244 6.501-7.942-.003-.018-.341-.027-1.015-.027-1.719 2.317-3.63 3.475-5.732 3.475-2.102 0-4.013-1.333-5.731-4z"/>
    </g>
</svg>
