<svg xmlns="http://www.w3.org/2000/svg" width="63" height="62" viewBox="0 0 63 62">
    <g fill="none" fill-rule="evenodd">
        <ellipse cx="31.5" cy="31" fill="#72A982" rx="31.5" ry="31"/>
        <path fill="#D1A48E" d="M27 29h9v4.702L31.5 36 27 33.702z"/>
        <g transform="translate(23 11)">
            <path fill="#EEC5B5" d="M8.574 21c3.47 0 5.839-4.337 6.94-9.078 1.102-4.741 0-9.078-6.94-9.078S.7 6.794 1.634 11.922C2.566 17.05 5.103 21 8.573 21z"/>
            <path fill="#EEC5B5" d="M15.329 14.058c.8 0 1.447-.848 1.447-1.893 0-1.046 0-1.894-1.447-1.894-1.448 0-1.448.848-1.448 1.894 0 1.045.648 1.893 1.448 1.893zM1.448 14.058c.799 0 1.447-.848 1.447-1.893 0-1.046 0-1.894-1.447-1.894C0 10.271 0 11.12 0 12.165c0 1.045.648 1.893 1.448 1.893z"/>
            <path fill="#83412C" d="M.786 10.275l.199-3.923C2.445 2.736 5.035.928 8.755.928c3.72 0 6.172 1.7 7.357 5.1v4.357l-.877.261c.054-2.007-.707-3.439-2.283-4.294-2.364-1.284-5.77-1.546-8.515-.325C1.692 7.25 2.154 9.185 2.055 9.942l-.1.758-1.169-.425z"/>
            <path fill="#00828C" d="M1.108 5.32h14.956l.267 2.475H.817z"/>
            <ellipse cx="8.574" cy="6.557" fill="#B3B6B8" rx="2.041" ry="2.063"/>
        </g>
        <path fill="#EDEDEE" d="M12.695 49s.693-11.562 2.77-13.686c1.386-1.415 5.258-2.237 11.618-2.465 1.413.82 2.82 1.263 4.225 1.326 1.404.062 2.9-.25 4.49-.936 5.954-.291 9.903.4 11.846 2.075 1.943 1.675 3.163 6.237 3.659 13.686-16.733.019-29.602.019-38.608 0z"/>
        <path fill="#B3B6B8" d="M27.012 34.874l2.742 13.974 3.596.002 2.804-14.07-3.948-.385z"/>
        <path fill="#D5D8D9" d="M26.985 32.045c-.665.235-1.046.513-1.145.835-.098.322-.405 2.332-.92 6.03l2.118 1.288-2.118 2.136L29.295 49h1.063l-3.373-16.955zM36.006 32.138c.409.095.745.374 1.01.836.264.463.452 2.508.565 6.138l-1.575.938 1.575 2.137-4.352 6.854h-.717l3.494-16.903z"/>
        <path fill="#94999B" d="M31.491 34.158l-2.23 3.222c-.77-.615-1.29-1.167-1.561-1.655-.27-.489-.518-1.724-.742-3.706l4.533 2.14z"/>
        <path fill="#D14124" d="M31 36h1l.565 8.69V49h-2.242v-4.31z"/>
        <path fill="#94999B" d="M31.615 34.175l1.915 3.16c.684-.421 1.235-.91 1.653-1.466.417-.556.7-1.822.849-3.798l-4.417 2.104z"/>
        <path fill="#D14124" d="M31.528 36.726c.553 0 1.043-.174 1.043-.726s-.476-1.839-1.029-1.839c-.552 0-1.057 1.287-1.057 1.839s.491.726 1.043.726z"/>
    </g>
</svg>
