<svg xmlns="http://www.w3.org/2000/svg" width="63" height="62" viewBox="0 0 63 62">
    <g fill="none" fill-rule="evenodd">
        <ellipse cx="31.5" cy="31" fill="#EDA762" rx="31.5" ry="31"/>
        <path stroke="#5E6568" stroke-linecap="square" stroke-width="3" d="M44.15 24.378c.282 9.562.282 15.378 0 17.448-.282 2.07-1.32 4.25-3.117 6.54-1.663 1.605-3.633 2.356-5.912 2.251-3.418-.156-4.781-.796-6.814-2.251-2.032-1.456-2.58-2.643-3.379-5.046-.532-1.601-.86-3.693-.982-6.275"/>
        <g transform="translate(39.2 14)">
            <ellipse cx="5.4" cy="5.415" fill="#D1D3D4" rx="5.4" ry="5.415"/>
            <ellipse cx="5.4" cy="5.415" fill="#D1D3D4" stroke="#7D8385" rx="3.6" ry="3.61"/>
            <ellipse cx="5.4" cy="5.415" fill="#7D8385" rx="1" ry="1"/>
        </g>
        <path stroke="#D1D3D4" stroke-linecap="square" stroke-width="2" d="M20.68 17.436c-2.424-.097-4.144.287-5.163 1.154-1.527 1.3-1.247 1.438 0 6.874 1.248 5.435 2.244 7.017 2.41 7.385.167.369 1.034 1.662 1.913 2.358 1.249.988 2.61 1.498 4.087 1.529 1.488-.124 2.83-.876 4.029-2.259.48-.553.866-1.034 1.16-1.442.439-.61 2.967-4.734 3.495-6.587.528-1.852 1.894-6.577 0-7.858-1.262-.854-2.875-1.24-4.84-1.154"/>
        <path stroke="#5E6568" stroke-linecap="square" stroke-width="3" d="M17.28 31.696c.458 1.352 1.31 2.522 2.56 3.51 1.249.99 2.61 1.55 4.081 1.682 1.492-.225 2.837-1.028 4.035-2.41 1.198-1.383 1.898-2.31 2.102-2.782"/>
        <path fill="#7C8385" d="M20.64 19.627c.952-.36 1.8-1.01 1.8-2.256 0-1.246-.833-1.969-1.8-2.256-.511-.151-1.477-.391-1.8 0-.34.41-.339 1.619-.339 2.256 0 .678-.04 1.843.338 2.256.317.347 1.337.176 1.8 0zM27.5 19.627c-.953-.36-1.8-1.01-1.8-2.256 0-1.246.832-1.969 1.8-2.256.51-.151 1.476-.391 1.8 0 .34.41.338 1.619.338 2.256 0 .678.04 1.843-.338 2.256-.316.347-1.337.176-1.8 0z"/>
    </g>
</svg>
