<svg xmlns="http://www.w3.org/2000/svg" xmlns:xlink="http://www.w3.org/1999/xlink" width="19" height="15" viewBox="0 0 19 15">
    <defs>
        <path id="a" d="M0 0h5.712v7.03H0z"/>
    </defs>
    <g fill="none" fill-rule="evenodd">
        <path fill="#AF4591" d="M2.382.912h15a1.5 1.5 0 0 1 1.5 1.5V12.81a1.5 1.5 0 0 1-1.5 1.5h-15a1.5 1.5 0 0 1-1.5-1.5V2.412a1.5 1.5 0 0 1 1.5-1.5zm.596 2.785a.703.703 0 1 0 0 1.407h7.186a.703.703 0 1 0 0-1.407H2.978zM2.973 6.8a.703.703 0 1 0 0 1.407h5.59a.703.703 0 1 0 0-1.407h-5.59z"/>
        <g transform="translate(11.51 5.381)">
            <path fill="#FFFFFF" d="M5.52 5.066c-.425-.555-.826-.842-1.752-.935-.167-.033-.146-.181-.146-.357 0-.129.266-.514.263-.517.426-.44.509-1.157.509-1.708C4.394.694 3.705 0 2.856 0c-.85 0-1.538.694-1.538 1.55 0 .553.076 1.274.507 1.714 0 0 .265.381.265.51 0 .186.006.341-.176.363-.906.096-1.302.381-1.722.929-.122.158-.188.476-.192.646v.732c0 .586 0 .586.586.586h4.54c.586 0 .586 0 .586-.586 0 0-.002-.688 0-.732-.005-.17-.07-.488-.192-.646" mask="url(#b)"/>
        </g>
    </g>
</svg>
