<svg xmlns="http://www.w3.org/2000/svg" width="17" height="19" viewBox="0 0 17 19">
    <g fill="#AF4591" fill-rule="evenodd">
        <path d="M8.619 5.55c1.785-1.244 3.764-1.434 5.382-.513 2.514 1.43 3.208 4.996 1.03 8.71-.713 1.218-.957 3.369-1.918 4.136-1.841 1.471-2.98 1.03-4.503.181l-.148.088c-1.638.932-2.462 1.194-4.388-.269-1.03-.782-1.228-2.842-1.987-4.136C-.09 10.033.852 6.346 3.365 4.917 5 3.986 6.895 4.24 8.62 5.55zm3.601 1.06l-.273.222a.5.5 0 0 0 .03.798c.295.206.545.452.747.739.271.383.474.858.608 1.426a.282.282 0 0 0 .416.18l.08-.047a.5.5 0 0 0 .25-.458c-.033-.637-.148-1.18-.346-1.629-.18-.407-.46-.805-.838-1.193a.5.5 0 0 0-.674-.039z"/>
        <path d="M8.126 1.993h.73a.5.5 0 0 1 .5.532l-.184 2.81a.5.5 0 0 1-.499.467H8.59a.5.5 0 0 1-.493-.419l-.463-2.81a.5.5 0 0 1 .493-.58zM12.76 2.837c-.743.744-1.699 1.136-2.865 1.176.04-1.166.432-2.122 1.176-2.865.743-.744 1.699-1.136 2.865-1.176-.04 1.166-.432 2.122-1.176 2.865z"/>
    </g>
</svg>
