<svg xmlns="http://www.w3.org/2000/svg" width="15" height="18" viewBox="0 0 15 18">
    <g fill="none" fill-rule="evenodd">
        <path fill="#AF4591" d="M14.381 12.971c-1.087-1.421-2.115-2.156-4.485-2.392-.427-.086-.375-.465-.375-.915 0-.33.683-1.316.675-1.324 1.091-1.128 1.302-2.962 1.302-4.373C11.498 1.777 9.735 0 7.56 0 5.385 0 3.623 1.778 3.623 3.967c0 1.418.194 3.263 1.297 4.392 0 0 .679.975.679 1.305 0 .476.015.873-.45.93-2.322.244-3.334.975-4.41 2.377-.311.405-.48 1.219-.491 1.654.003.113 0 1.875 0 1.875 0 1.5 0 1.5 1.5 1.5h11.625c1.5 0 1.5 0 1.5-1.5 0 0-.004-1.762 0-1.875-.012-.435-.18-1.249-.492-1.654l3.29-6.886"/>
        <path fill="#FFFFFF" d="M3.202 2.414h9V3.68h-9zM4.336 9.899l3.867 5.43-.841.671-3.898-5.457z"/>
        <path fill="#FFFFFF" d="M10.785 9.899l-3.879 5.443.645.947 4.105-5.746z"/>
        <circle cx="7.56" cy="3.021" r="1.148" fill="#AF4591" stroke="#FFFFFF"/>
    </g>
</svg>
