<svg xmlns="http://www.w3.org/2000/svg" width="14" height="24" viewBox="0 0 14 24">
    <g fill="#AF4591" fill-rule="evenodd">
        <path d="M5.822.274H2.805a1.5 1.5 0 0 0-1.5 1.5v7.915c0 .487.236.944.634 1.225l2.678 1.891h5.242l2.67-1.89a1.5 1.5 0 0 0 .632-1.225V1.774a1.5 1.5 0 0 0-1.5-1.5H8.645v12.06H5.822V.274z"/>
        <path d="M7.233 23.251a6.266 6.266 0 1 1 0-12.531 6.266 6.266 0 0 1 0 12.531zm0-10.624a.35.35 0 0 0-.338.258l-.857 2.648H3.223a.36.36 0 0 0-.349.365c0 .12.06.227.151.29.056.038 2.274 1.658 2.274 1.658s-.852 2.616-.868 2.657a.353.353 0 0 0 .532.414l2.27-1.652 2.27 1.653a.354.354 0 0 0 .532-.414 993.73 993.73 0 0 1-.868-2.658s2.218-1.62 2.274-1.658c.09-.063.15-.17.15-.292 0-.194-.15-.363-.344-.363H8.432l-.861-2.648a.35.35 0 0 0-.338-.258z"/>
    </g>
</svg>
